<!-- Generator: Adobe Illustrator 23.0.1, SVG Export Plug-In  -->
<svg version="1.1" xmlns="http://www.w3.org/2000/svg" xmlns:xlink="http://www.w3.org/1999/xlink" x="0px" y="0px"
	 width="323.907px" height="323.995px" viewBox="0 0 323.907 323.995" style="enable-background:new 0 0 323.907 323.995;"
	 xml:space="preserve">
<style type="text/css">
	.st0{fill:#39B54A;}
	.st1{fill:#FFFFFF;}
	.st2{fill:#006837;}
	.st3{fill:#FFD700;}
	.st4{fill:#F9F7F7;}
</style>
<defs>
</defs>
<g>
	<path class="st0" d="M161.954,323.995L161.954,323.995C72.509,323.995,0,251.486,0,162.042l0-0.088C0,72.509,72.509,0,161.953,0h0
		c89.444,0,161.953,72.509,161.953,161.953v0.088C323.907,251.486,251.398,323.995,161.954,323.995z"/>
	<path class="st1" d="M161.907,308.905L161.907,308.905C80.22,308.905,14,242.684,14,160.998v0
		C14,79.311,80.22,13.091,161.907,13.091h0c81.687,0,147.907,66.22,147.907,147.907v0
		C309.814,242.684,243.594,308.905,161.907,308.905z"/>
	<path class="st2" d="M162,294.998L162,294.998c-74.006,0-134-59.994-134-134v0c0-74.006,59.994-134,134-134h0
		c74.006,0,134,59.994,134,134v0C296,235.004,236.006,294.998,162,294.998z"/>
	<path class="st3" d="M112,168.998L112,168.998c-32.033,0-58-25.967-58-58v-58h58c32.032,0,58,25.967,58,58v0
		C170,143.03,144.033,168.998,112,168.998z"/>
	<path class="st3" d="M270,268.998h-58c-32.032,0-58-25.967-58-58v0c0-32.032,25.967-58,58-58h0c32.032,0,58,25.967,58,58V268.998z"
		/>
	<path class="st3" d="M112,269.998H53l0-59c0-32.585,26.415-59,59-59h0c32.585,0,59,26.415,59,59v0
		C171,243.582,144.585,269.998,112,269.998z"/>
	<path class="st3" d="M212,168.998h-58v-58c0-32.032,25.967-58,58-58h58v58C270,143.03,244.033,168.998,212,168.998z"/>
	<path class="st4" d="M162,214.998L162,214.998c-29.823,0-54-24.177-54-54v0c0-29.823,24.177-54,54-54h0c29.823,0,54,24.177,54,54v0
		C216,190.821,191.823,214.998,162,214.998z"/>
</g>
</svg>